<svg width="345" height="39" viewBox="0 0 345 39" fill="none" xmlns="http://www.w3.org/2000/svg">
<path d="M6.5265 12.408H9.7265V13.176C9.7265 19.32 7.9345 25.496 3.1985 28.216L0.7985 25.016C5.0225 22.552 6.5265 17.72 6.5265 13.176V12.408ZM7.3585 12.408H10.5585V13.176C10.5585 17.624 12.0945 22.136 16.2865 24.376L13.9825 27.512C9.1825 25.016 7.3585 19.224 7.3585 13.176V12.408ZM1.7905 9.208H15.2625V12.632H1.7905V9.208ZM6.5265 5.208H10.5585V11.96H6.5265V5.208ZM22.9745 4.216H27.0065V33.848H22.9745V4.216ZM19.4225 15.576H24.3505V19.032H19.4225V15.576ZM16.6065 4.664H20.5745V32.504H16.6065V4.664ZM32.412 17.496H34.94C41.052 17.496 44.604 17.432 48.668 16.792L49.084 20.088C44.924 20.792 41.18 20.856 34.94 20.856H32.412V17.496ZM32.412 6.264H46.652V9.624H36.636V18.872H32.412V6.264ZM35.324 11.896H45.788V15.16H35.324V11.896ZM51.132 4.248H55.42V22.136H51.132V4.248ZM45.404 22.584C51.644 22.584 55.548 24.664 55.548 28.216C55.548 31.8 51.644 33.848 45.404 33.848C39.132 33.848 35.26 31.8 35.26 28.216C35.26 24.664 39.132 22.584 45.404 22.584ZM45.404 25.848C41.532 25.848 39.516 26.616 39.516 28.216C39.516 29.848 41.532 30.616 45.404 30.616C49.244 30.616 51.292 29.848 51.292 28.216C51.292 26.616 49.244 25.848 45.404 25.848Z" fill="black"/>
<path d="M280.4 27.5H283.6V21.1H290V17.9H283.6V11.5H280.4V17.9H274V21.1H280.4V27.5ZM282 35.5C279.787 35.5 277.707 35.08 275.76 34.24C273.813 33.4 272.12 32.26 270.68 30.82C269.24 29.38 268.1 27.6867 267.26 25.74C266.42 23.7933 266 21.7133 266 19.5C266 17.2867 266.42 15.2067 267.26 13.26C268.1 11.3133 269.24 9.62 270.68 8.18C272.12 6.74 273.813 5.6 275.76 4.76C277.707 3.92 279.787 3.5 282 3.5C284.213 3.5 286.293 3.92 288.24 4.76C290.187 5.6 291.88 6.74 293.32 8.18C294.76 9.62 295.9 11.3133 296.74 13.26C297.58 15.2067 298 17.2867 298 19.5C298 21.7133 297.58 23.7933 296.74 25.74C295.9 27.6867 294.76 29.38 293.32 30.82C291.88 32.26 290.187 33.4 288.24 34.24C286.293 35.08 284.213 35.5 282 35.5ZM282 32.3C285.573 32.3 288.6 31.06 291.08 28.58C293.56 26.1 294.8 23.0733 294.8 19.5C294.8 15.9267 293.56 12.9 291.08 10.42C288.6 7.94 285.573 6.7 282 6.7C278.427 6.7 275.4 7.94 272.92 10.42C270.44 12.9 269.2 15.9267 269.2 19.5C269.2 23.0733 270.44 26.1 272.92 28.58C275.4 31.06 278.427 32.3 282 32.3Z" fill="#1C1B1F"/>
<path d="M342.511 35.5L331.311 24.3C330.422 25.0111 329.4 25.5741 328.244 25.9889C327.089 26.4037 325.859 26.6111 324.556 26.6111C321.326 26.6111 318.593 25.4926 316.356 23.2556C314.119 21.0185 313 18.2852 313 15.0556C313 11.8259 314.119 9.09259 316.356 6.85556C318.593 4.61852 321.326 3.5 324.556 3.5C327.785 3.5 330.519 4.61852 332.756 6.85556C334.993 9.09259 336.111 11.8259 336.111 15.0556C336.111 16.3593 335.904 17.5889 335.489 18.7444C335.074 19.9 334.511 20.9222 333.8 21.8111L345 33.0111L342.511 35.5ZM324.556 23.0556C326.778 23.0556 328.667 22.2778 330.222 20.7222C331.778 19.1667 332.556 17.2778 332.556 15.0556C332.556 12.8333 331.778 10.9444 330.222 9.38889C328.667 7.83333 326.778 7.05556 324.556 7.05556C322.333 7.05556 320.444 7.83333 318.889 9.38889C317.333 10.9444 316.556 12.8333 316.556 15.0556C316.556 17.2778 317.333 19.1667 318.889 20.7222C320.444 22.2778 322.333 23.0556 324.556 23.0556Z" fill="#1C1B1F"/>
</svg>
