<svg width="44" height="33" viewBox="0 0 44 33" fill="none" xmlns="http://www.w3.org/2000/svg">
<path d="M0 32.5V26.9C0 25.7667 0.291667 24.725 0.875 23.775C1.45833 22.825 2.23333 22.1 3.2 21.6C5.26667 20.5667 7.36667 19.7917 9.5 19.275C11.6333 18.7583 13.8 18.5 16 18.5C18.2 18.5 20.3667 18.7583 22.5 19.275C24.6333 19.7917 26.7333 20.5667 28.8 21.6C29.7667 22.1 30.5417 22.825 31.125 23.775C31.7083 24.725 32 25.7667 32 26.9V32.5H0ZM36 32.5V26.5C36 25.0333 35.5917 23.625 34.775 22.275C33.9583 20.925 32.8 19.7667 31.3 18.8C33 19 34.6 19.3417 36.1 19.825C37.6 20.3083 39 20.9 40.3 21.6C41.5 22.2667 42.4167 23.0083 43.05 23.825C43.6833 24.6417 44 25.5333 44 26.5V32.5H36ZM16 16.5C13.8 16.5 11.9167 15.7167 10.35 14.15C8.78333 12.5833 8 10.7 8 8.5C8 6.3 8.78333 4.41667 10.35 2.85C11.9167 1.28333 13.8 0.5 16 0.5C18.2 0.5 20.0833 1.28333 21.65 2.85C23.2167 4.41667 24 6.3 24 8.5C24 10.7 23.2167 12.5833 21.65 14.15C20.0833 15.7167 18.2 16.5 16 16.5ZM36 8.5C36 10.7 35.2167 12.5833 33.65 14.15C32.0833 15.7167 30.2 16.5 28 16.5C27.6333 16.5 27.1667 16.4583 26.6 16.375C26.0333 16.2917 25.5667 16.2 25.2 16.1C26.1 15.0333 26.7917 13.85 27.275 12.55C27.7583 11.25 28 9.9 28 8.5C28 7.1 27.7583 5.75 27.275 4.45C26.7917 3.15 26.1 1.96667 25.2 0.9C25.6667 0.733333 26.1333 0.625 26.6 0.575C27.0667 0.525 27.5333 0.5 28 0.5C30.2 0.5 32.0833 1.28333 33.65 2.85C35.2167 4.41667 36 6.3 36 8.5ZM4 28.5H28V26.9C28 26.5333 27.9083 26.2 27.725 25.9C27.5417 25.6 27.3 25.3667 27 25.2C25.2 24.3 23.3833 23.625 21.55 23.175C19.7167 22.725 17.8667 22.5 16 22.5C14.1333 22.5 12.2833 22.725 10.45 23.175C8.61667 23.625 6.8 24.3 5 25.2C4.7 25.3667 4.45833 25.6 4.275 25.9C4.09167 26.2 4 26.5333 4 26.9V28.5ZM16 12.5C17.1 12.5 18.0417 12.1083 18.825 11.325C19.6083 10.5417 20 9.6 20 8.5C20 7.4 19.6083 6.45833 18.825 5.675C18.0417 4.89167 17.1 4.5 16 4.5C14.9 4.5 13.9583 4.89167 13.175 5.675C12.3917 6.45833 12 7.4 12 8.5C12 9.6 12.3917 10.5417 13.175 11.325C13.9583 12.1083 14.9 12.5 16 12.5Z" fill="#1C1B1F"/>
</svg>
