<svg width="32" height="33" viewBox="0 0 32 33" fill="none" xmlns="http://www.w3.org/2000/svg">
<path d="M29.5111 32.5L18.3111 21.3C17.4222 22.0111 16.4 22.5741 15.2444 22.9889C14.0889 23.4037 12.8593 23.6111 11.5556 23.6111C8.32593 23.6111 5.59259 22.4926 3.35556 20.2556C1.11852 18.0185 0 15.2852 0 12.0556C0 8.82593 1.11852 6.09259 3.35556 3.85556C5.59259 1.61852 8.32593 0.5 11.5556 0.5C14.7852 0.5 17.5185 1.61852 19.7556 3.85556C21.9926 6.09259 23.1111 8.82593 23.1111 12.0556C23.1111 13.3593 22.9037 14.5889 22.4889 15.7444C22.0741 16.9 21.5111 17.9222 20.8 18.8111L32 30.0111L29.5111 32.5ZM11.5556 20.0556C13.7778 20.0556 15.6667 19.2778 17.2222 17.7222C18.7778 16.1667 19.5556 14.2778 19.5556 12.0556C19.5556 9.83333 18.7778 7.94444 17.2222 6.38889C15.6667 4.83333 13.7778 4.05556 11.5556 4.05556C9.33333 4.05556 7.44444 4.83333 5.88889 6.38889C4.33333 7.94444 3.55556 9.83333 3.55556 12.0556C3.55556 14.2778 4.33333 16.1667 5.88889 17.7222C7.44444 19.2778 9.33333 20.0556 11.5556 20.0556Z" fill="#1C1B1F"/>
</svg>
